<svg data-v-fde0c5aa="" xmlns="http://www.w3.org/2000/svg" viewBox="0 0 300 300" class="font"><!----><defs data-v-fde0c5aa=""><!----></defs><rect data-v-fde0c5aa="" fill="#0B173D" x="0" y="0" width="300px" height="300px" class="logo-background-square"></rect><defs data-v-fde0c5aa=""><!----></defs><g data-v-fde0c5aa="" id="a2b02065-9457-4aea-80fe-319354fbab4e" fill="#DD2E44" transform="matrix(13.317190914278074,0,0,13.317190914278074,19.491526500022285,48.38983180002674)"><path d="M8.68 2.38L8.68 7.49L1.82 7.49L1.82 2.38L1.54 2.38L1.54 12.88L1.82 12.88L1.82 7.77L8.68 7.77L8.68 12.88L8.96 12.88L8.96 2.38ZM15.30 2.38L12.04 2.38L12.04 12.88L12.32 12.88L12.32 7.91L15.30 7.91C16.82 7.91 18.06 6.67 18.06 5.15C18.06 3.61 16.82 2.38 15.30 2.38ZM15.30 7.63L12.32 7.63L12.32 2.66L15.30 2.66C16.66 2.66 17.78 3.76 17.78 5.15C17.78 6.53 16.68 7.63 15.30 7.63Z"></path></g><!----><!----></svg>